<svg width="988" height="48" viewBox="0 0 988 48" fill="none" xmlns="http://www.w3.org/2000/svg">
<circle cx="964" cy="24" r="23.5" fill="black" stroke="white"/>
<path d="M0.939758 22.939C0.354004 23.5248 0.354004 24.4745 0.939758 25.0603L10.4857 34.6063C11.0715 35.1921 12.0212 35.1921 12.6071 34.6063C13.1928 34.0205 13.1928 33.0707 12.6071 32.485L4.12177 23.9997L12.6071 15.5144C13.1928 14.9286 13.1928 13.9789 12.6071 13.3931C12.0212 12.8073 11.0715 12.8073 10.4857 13.3931L0.939758 22.939ZM978.561 25.0607C979.146 24.4749 979.146 23.5251 978.561 22.9393L969.015 13.3934C968.429 12.8076 967.479 12.8076 966.893 13.3934C966.308 13.9792 966.308 14.9289 966.893 15.5147L975.379 24L966.893 32.4853C966.308 33.0711 966.308 34.0208 966.893 34.6066C967.479 35.1924 968.429 35.1924 969.015 34.6066L978.561 25.0607ZM31.0004 22.4997L2.00043 22.4997L2.00043 25.4997L31.0004 25.4997L31.0004 22.4997ZM948.5 25.5L977.5 25.5L977.5 22.5L948.5 22.5L948.5 25.5Z" fill="white"/>
</svg>
