<svg width="987" height="48" viewBox="0 0 987 48" fill="none" xmlns="http://www.w3.org/2000/svg">
<circle cx="24" cy="24" r="23.5" fill="black" stroke="white"/>
<path d="M8.93976 22.939C8.354 23.5248 8.354 24.4745 8.93976 25.0603L18.4857 34.6063C19.0715 35.1921 20.0212 35.1921 20.6071 34.6063C21.1928 34.0205 21.1928 33.0707 20.6071 32.485L12.1218 23.9997L20.6071 15.5144C21.1928 14.9286 21.1928 13.9789 20.6071 13.3931C20.0212 12.8073 19.0715 12.8073 18.4857 13.3931L8.93976 22.939ZM986.561 25.0607C987.146 24.4749 987.146 23.5251 986.561 22.9393L977.015 13.3934C976.429 12.8076 975.479 12.8076 974.893 13.3934C974.308 13.9792 974.308 14.9289 974.893 15.5147L983.379 24L974.893 32.4853C974.308 33.0711 974.308 34.0208 974.893 34.6066C975.479 35.1924 976.429 35.1924 977.015 34.6066L986.561 25.0607ZM39.0004 22.4997L10.0004 22.4997L10.0004 25.4997L39.0004 25.4997L39.0004 22.4997ZM956.5 25.5L985.5 25.5L985.5 22.5L956.5 22.5L956.5 25.5Z" fill="white"/>
</svg>
